<svg xmlns="http://www.w3.org/2000/svg" viewBox="0 0 300 300">
  <!-- background grid for reference -->
  <path d="M0,0H300M0,50H300M0,100H300M0,150H300M0,200H300M0,250H300
           M50,0V300M100,0V300M150,0V300M200,0V300M250,0V300"
        stroke="#eee" fill="none"/>

  <!-- ===== 1) FLAG MATRIX (absolute A) — same endpoints, four flag combos ===== -->
  <!-- small-arc, sweep=0 -->
  <path d="M30,40 A40,40 0 0 0 110,40" stroke="black" stroke-width="2" fill="none"/>
  <!-- small-arc, sweep=1 -->
  <path d="M30,40 A40,40 0 0 1 110,40" stroke="red" stroke-width="2" fill="none"/>
  <!-- large-arc, sweep=0 -->
  <path d="M30,110 A40,40 0 1 0 110,110" stroke="green" stroke-width="2" fill="none"/>
  <!-- large-arc, sweep=1 -->
  <path d="M30,110 A40,40 0 1 1 110,110" stroke="blue" stroke-width="2" fill="none"/>

  <!-- ===== 2) FLAG MATRIX (relative a) — same geometry, relative endpoints ===== -->
  <!-- small-arc, sweep=0 -->
  <path d="M180,40 a40,40 0 0 0 80,0" stroke="black" stroke-width="2" fill="none"/>
  <!-- small-arc, sweep=1 -->
  <path d="M180,40 a40,40 0 0 1 80,0" stroke="red" stroke-width="2" fill="none"/>
  <!-- large-arc, sweep=0 -->
  <path d="M180,110 a40,40 0 1 0 80,0" stroke="green" stroke-width="2" fill="none"/>
  <!-- large-arc, sweep=1 -->
  <path d="M180,110 a40,40 0 1 1 80,0" stroke="blue" stroke-width="2" fill="none"/>

  <!-- ===== 3) RADII SCALING (λ>1): endpoints far, small radii -> must scale ===== -->
  <path d="M20,150 A30,20 0 0 0 280,150" stroke="purple" stroke-width="2" fill="none"/>
  <!-- same but rotated ellipse -->
  <path d="M20,170 A30,20 45 0 1 280,170" stroke="orange" stroke-width="2" fill="none"/>

  <!-- ===== 4) ROTATED ELLIPSE (rx≠ry, rot=45°), plus chained relative arcs ===== -->
  <path d="M50,220 A60,20 45 0 1 250,220" stroke="brown" stroke-width="2" fill="none"/>
  <path d="M50,240 a60,20 45 0 1 100,0 a60,20 45 0 0 100,0"
        stroke="teal" stroke-width="2" fill="none"/>

  <!-- ===== 5) DEGENERATES ===== -->
  <!-- rx=0 -> straight line to end -->
  <path d="M50,260 A0,20 0 0 1 250,260" stroke="#777" stroke-width="2" fill="none"/>
  <!-- identical endpoints -> no-op arc, then a line (confirms path continues) -->
  <path d="M50,280 A40,40 0 1 1 50,280 L250,280" stroke="#333" stroke-width="2" fill="none"/>
</svg>
