<?xml version="1.0" encoding="UTF-8" standalone="no"?>
<!-- Created with Inkscape (http://www.inkscape.org/) -->

<svg
   version="1.1"
   id="svg1"
   width="242.97333"
   height="144.61333"
   viewBox="0 0 242.97333 144.61333"
   sodipodi:docname="geoworks.eps"
   xmlns:inkscape="http://www.inkscape.org/namespaces/inkscape"
   xmlns:sodipodi="http://sodipodi.sourceforge.net/DTD/sodipodi-0.dtd"
   xmlns="http://www.w3.org/2000/svg"
   xmlns:svg="http://www.w3.org/2000/svg">
  <defs
     id="defs1" />
  <sodipodi:namedview
     id="namedview1"
     pagecolor="#ffffff"
     bordercolor="#000000"
     borderopacity="0.25"
     inkscape:showpageshadow="2"
     inkscape:pageopacity="0.0"
     inkscape:pagecheckerboard="0"
     inkscape:deskcolor="#d1d1d1">
    <inkscape:page
       x="0"
       y="0"
       inkscape:label="1"
       id="page1"
       width="242.97333"
       height="144.61333"
       margin="0"
       bleed="0" />
  </sodipodi:namedview>
  <g
     id="g1"
     inkscape:groupmode="layer"
     inkscape:label="1">
    <path
       id="path1"
       d="m 561.406,961.055 c 95.434,-11.016 170.305,-47.469 195.403,-95.137 4.55,-8.633 7.336,-17.422 8.48,-26.297 15.242,7.449 28.871,15.652 40.75,24.52 -0.41,0.8 -0.773,1.601 -1.203,2.402 -31.484,58.496 -118.195,100.02 -231.949,111.094 l -7.797,0.644 -1.992,0.157 c -4.746,0.371 -8.922,-3.125 -9.375,-7.872 -0.457,-4.726 2.957,-8.964 7.683,-9.511"
       style="fill:#154281;fill-opacity:1;fill-rule:nonzero;stroke:none"
       transform="matrix(0.13333333,0,0,-0.13333333,0,144.61333)" />
    <path
       id="path2"
       d="m 770.035,818.051 c -1.133,-10.098 -4.41,-20.305 -9.84,-30.571 -43.531,-82.265 -207.363,-136.71 -365.218,-121.347 -97.864,9.512 -175.727,45.273 -203.2,93.359 -13.211,23.113 -14.097,47.344 -2.621,72.012 1.969,4.219 0.25,9.207 -3.875,11.387 -4.117,2.168 -9.226,0.683 -11.597,-3.321 l -0.946,-1.601 -2.148,-3.75 c -17.117,-32.364 -17.402,-65.742 -0.832,-96.524 31.48,-58.496 118.207,-100.019 231.984,-111.074 174.852,-17.031 357.371,45.262 406.871,138.828 13.145,24.867 16.344,50.332 9.602,74.766 l -48.18,-22.164"
       style="fill:#154281;fill-opacity:1;fill-rule:nonzero;stroke:none"
       transform="matrix(0.13333333,0,0,-0.13333333,0,144.61333)" />
    <path
       id="path3"
       d="m 467.867,1084.55 -2.504,-0.41 -7.16,-1.23 c -112.402,-20.7 -195.262,-69.45 -221.656,-130.43 -13.891,-32.082 -10.77,-65.292 9.023,-96.054 57.278,-89.024 244.442,-135.555 417.223,-103.731 112.414,20.703 195.289,69.453 221.672,130.43 13.89,32.07 10.769,65.293 -9.02,96.055 -0.011,0.019 -2.855,4.121 -2.855,4.121 l -0.75,1.035 c -2.707,3.781 -7.91,4.785 -11.82,2.266 -3.911,-2.52 -5.176,-7.657 -2.86,-11.68 13.528,-23.594 14.703,-47.813 3.516,-71.973 -23.281,-50.234 -97.813,-92.5 -194.508,-110.312 -155.973,-28.731 -323.848,11.582 -374.223,89.863 -15.429,23.965 -17.945,48.691 -7.488,73.477 20.945,49.613 92.441,92.303 186.594,111.403 4.664,0.95 7.703,5.46 6.844,10.14 -0.868,4.69 -5.332,7.81 -10.028,7.03"
       style="fill:#fab217;fill-opacity:1;fill-rule:nonzero;stroke:none"
       transform="matrix(0.13333333,0,0,-0.13333333,0,144.61333)" />
    <path
       id="path4"
       d="m 497.168,466.582 h 47.363 V 87.6758 h -47.363 z m 9.477,-423.9257 h 28.414 c 36.312,0 56.839,18.9453 56.839,52.8906 V 458.691 c 0,33.164 -20.527,52.09 -56.839,52.09 h -28.418 c -36.313,0 -56.836,-18.926 -56.836,-52.09 V 95.5469 c 0,-33.9453 20.523,-52.8906 56.84,-52.8906"
       style="fill:#154281;fill-opacity:1;fill-rule:nonzero;stroke:none"
       transform="matrix(0.13333333,0,0,-0.13333333,0,144.61333)" />
    <path
       id="path5"
       d="m 712.172,510.781 23.683,-248.652 37.106,185.508 h 31.57 l 37.903,-188.672 22.101,251.816 h 47.363 L 872.434,42.6563 H 830.59 L 788.75,315.82 746.125,42.6563 H 704.281 L 664.809,510.781 h 47.363"
       style="fill:#154281;fill-opacity:1;fill-rule:nonzero;stroke:none"
       transform="matrix(0.13333333,0,0,-0.13333333,0,144.61333)" />
    <path
       id="path6"
       d="m 1027.09,466.582 h 47.37 V 87.6758 h -47.37 z m 9.47,-423.9257 h 28.42 c 36.32,0 56.84,18.9453 56.84,52.8906 V 458.691 c 0,33.164 -20.52,52.09 -56.84,52.09 h -28.42 c -36.31,0 -56.83,-18.926 -56.83,-52.09 V 95.5469 c 0,-33.9453 20.52,-52.8906 56.83,-52.8906"
       style="fill:#154281;fill-opacity:1;fill-rule:nonzero;stroke:none"
       transform="matrix(0.13333333,0,0,-0.13333333,0,144.61333)" />
    <path
       id="path7"
       d="m 1306.55,303.184 h -47.37 v 163.398 h 47.37 z M 1259.18,42.6563 V 258.184 h 11.06 l 40.25,-215.5277 h 47.36 l -47.36,216.3087 c 26.06,3.164 43.42,24.473 43.42,52.109 v 147.617 c 0,33.164 -20.53,52.09 -56.84,52.09 h -85.26 V 42.6563 h 47.37"
       style="fill:#154281;fill-opacity:1;fill-rule:nonzero;stroke:none"
       transform="matrix(0.13333333,0,0,-0.13333333,0,144.61333)" />
    <path
       id="path8"
       d="M 1496.21,510.781 V 300.82 l 47.35,209.961 h 47.37 l -54.47,-233.652 54.47,-234.4727 h -47.37 L 1496.21,258.184 V 42.6563 h -47.37 V 510.781 h 47.37"
       style="fill:#154281;fill-opacity:1;fill-rule:nonzero;stroke:none"
       transform="matrix(0.13333333,0,0,-0.13333333,0,144.61333)" />
    <path
       id="path9"
       d="m 1767.66,466.582 c -36.33,-2.363 -54.47,-26.035 -54.47,-71.035 0,-25.274 7.89,-52.891 27.63,-100.254 5.52,-13.438 9.47,-24.492 13.42,-33.164 11.05,-30 17.37,-60 17.37,-87.637 0,-30.781 -7.1,-59.98 -20.54,-82.8904 -7.1,-11.836 -17.34,-22.1094 -29.19,-30 -16.58,-10.2539 -30.8,-14.9805 -64.75,-18.9453 v 45.0195 c 24.49,5.5078 34.74,9.4531 42.65,17.3442 14.21,13.437 21.3,37.109 21.3,68.691 0,14.199 -0.78,28.418 -3.94,41.836 -3.15,15 -7.9,30.801 -14.21,45.801 -2.37,6.308 -8.68,19.726 -17.37,39.472 -16.58,39.453 -22.1,60.782 -22.1,93.926 0,33.145 9.47,63.945 25.25,82.91 17.37,20.508 40.27,30.782 78.95,33.125 v -44.199"
       style="fill:#154281;fill-opacity:1;fill-rule:nonzero;stroke:none"
       transform="matrix(0.13333333,0,0,-0.13333333,0,144.61333)" />
    <path
       id="path10"
       d="M 152.426,303.594 V 56.7383 C 152.426,20.332 130.41,0 91.4609,0 H 60.9727 C 22.0117,0 0,20.332 0,56.7383 V 514.043 c 0,35.566 22.0117,55.898 60.9727,55.898 h 30.4882 c 38.9491,0 60.9651,-20.332 60.9651,-55.898 V 457.285 H 101.621 V 522.5 H 50.8125 V 48.2617 H 102.648 L 102.461,255.313 H 78.7539 v 48.281 h 73.6721"
       style="fill:#154281;fill-opacity:1;fill-rule:nonzero;stroke:none"
       transform="matrix(0.13333333,0,0,-0.13333333,0,144.61333)" />
    <path
       id="path11"
       d="M 360.605,510.762 V 466.563 H 291.93 V 303.984 h 68.675 v -45 H 291.93 V 87.6172 h 68.675 v -45 H 244.563 V 510.762 h 116.042"
       style="fill:#154281;fill-opacity:1;fill-rule:nonzero;stroke:none"
       transform="matrix(0.13333333,0,0,-0.13333333,0,144.61333)" />
    <path
       id="path12"
       d="m 1819.46,497.598 c 0,-6.309 -4.87,-11.289 -11.07,-11.289 -6.2,0 -11.1,4.98 -11.1,11.289 0,6.308 4.9,11.289 11.1,11.289 6.2,0 11.07,-4.981 11.07,-11.289 z m 2.79,0 c 0,7.656 -6.2,13.867 -13.86,13.867 -7.65,0 -13.85,-6.211 -13.85,-13.867 0,-7.657 6.2,-13.868 13.85,-13.868 7.66,0 13.86,6.211 13.86,13.868 z m -7.85,-7.461 -3.33,6.308 c 1.65,0.567 2.95,1.953 2.95,4.063 0,2.48 -1.99,4.59 -4.82,4.59 h -5.63 v -14.961 h 2.75 v 5.937 h 1.92 l 3.06,-5.937 z m -3.1,10.371 c 0,-1.27 -0.99,-2.266 -2.45,-2.266 h -2.53 v 4.531 h 2.53 c 1.46,0 2.45,-0.996 2.45,-2.265"
       style="fill:#154281;fill-opacity:1;fill-rule:nonzero;stroke:none"
       transform="matrix(0.13333333,0,0,-0.13333333,0,144.61333)" />
  </g>
</svg>
