<svg xmlns="http://www.w3.org/2000/svg"
     xmlns:xlink="http://www.w3.org/1999/xlink"
     height="800">
 <g style="fill: #AA0000">
  <path d="M20.895 54.407C22.437 55.87 49.4 84.8 49.4 84.8C84.6 121.401 56.6 87.2 56.6 87.2C49 82.4 39.8 63.6 39.8 63.6C38.6 60.8 53.8 70.8 53.8 70.8C57.8 71.6 71.4 90.8 71.4 90.8C64.6 88.4 69.4 95.6 69.4 95.6C72.2 97.6 92.601 113.201 92.601 113.201C96.201 117.201 100.201 118.801 100.201 118.801C114.201 113.601 107.801 126.801 107.801 126.801C110.201 133.601 115.801 122.001 115.801 122.001C127.001 105.2 110.601 107.601 110.601 107.601C80.6 110.401 73.8 94.4 73.8 94.4C71.4 92 80.2 94.4 80.2 94.4C88.601 96.4 73 82 73 82C75.4 82 84.6 88.8 84.6 88.8C95.001 98 97.001 96 97.001 96C115.001 87.2 125.401 94.8 125.401 94.8C127.401 96.4 121.801 103.2 123.401 108.401C125.001 113.601 129.801 126.001 129.801 126.001C127.401 127.601 127.801 138.401 127.801 138.401C144.601 161.601 135.001 159.601 135.001 159.601C119.401 159.201 134.201 166.801 134.201 166.801C137.401 168.801 146.201 176.001 146.201 176.001C143.401 174.801 141.801 180.001 141.801 180.001C146.601 184.001 143.801 188.801 143.801 188.801C137.801 190.001 136.601 194.001 136.601 194.001C143.401 202.001 133.401 202.401 133.401 202.401C137.001 206.801 132.201 218.801 132.201 218.801C127.401 218.801 121.001 224.401 121.001 224.401C123.401 229.201 113.001 234.801 113.001 234.801C104.601 236.401 107.401 243.201 107.401 243.201C99.401 249.201 97.001 265.201 97.001 265.201C96.201 275.601 93.801 278.801 99.001 276.801C104.201 274.801 103.401 262.401 103.401 262.401C98.601 246.801 141.401 230.801 141.401 230.801C145.401 229.201 146.201 224.001 146.201 224.001C148.201 224.401 157.001 232.001 157.001 232.001C164.601 243.201 165.001 234.001 165.001 234.001C166.201 230.401 164.601 224.401 164.601 224.401C170.601 202.801 156.601 196.401 156.601 196.401C146.601 162.801 160.601 171.201 160.601 171.201C163.401 176.801 174.201 182.001 174.201 182.001L177.801 179.601C176.201 174.801 184.601 168.801 184.601 168.801C187.401 175.201 193.401 167.201 193.401 167.201C197.001 142.801 209.401 157.201 209.401 157.201C213.401 158.401 214.601 151.601 214.601 151.601C218.201 141.201 214.601 127.601 214.601 127.601C218.201 127.201 227.801 133.201 227.801 133.201C230.601 129.601 221.401 112.801 225.401 115.201C229.401 117.601 233.801 119.201 233.801 119.201C234.601 117.201 224.601 104.801 224.601 104.801C220.201 102 215.001 81.6 215.001 81.6C222.201 85.2 212.201 70 212.201 70C212.201 66.8 218.201 55.6 218.201 55.6C217.401 48.8 218.201 49.2 218.201 49.2C221.001 50.4 229.001 52 222.201 45.6C215.401 39.2 223.001 34.4 223.001 34.4C227.401 31.6 213.801 32 213.801 32C208.601 27.6 209.001 23.6 209.001 23.6C217.001 25.6 202.601 11.2 200.201 7.6C197.801 4 207.401 -1.2 207.401 -1.2C220.601 -4.8 209.001 -8 209.001 -8C189.401 -7.6 200.201 -18.4 200.201 -18.4C206.201 -18 204.601 -20.4 204.601 -20.4C199.401 -21.6 189.801 -28 189.801 -28C185.801 -31.6 189.401 -30.8 189.401 -30.8C206.201 -29.6 177.401 -40.8 177.401 -40.8C185.401 -40.8 167.401 -51.2 167.401 -51.2C165.401 -52.8 162.201 -60.4 162.201 -60.4C156.201 -65.6 151.401 -72.4 151.401 -72.4C151.001 -76.8 146.201 -81.6 146.201 -81.6C134.601 -95.2 129.001 -94.8 129.001 -94.8C114.201 -98.4 109.001 -97.6 109.001 -97.6L56.2 -93.2C29.8 -80.4 37.6 -59.4 37.6 -59.4C44 -51 53.2 -54.8 53.2 -54.8C57.8 -61 69.4 -58.8 69.4 -58.8C89.801 -55.6 87.201 -59.2 87.201 -59.2C84.801 -63.8 68.6 -70 68.4 -70.6C68.2 -71.2 59.4 -74.6 59.4 -74.6C56.4 -75.8 52 -85 52 -85C48.8 -88.4 64.6 -82.6 64.6 -82.6C63.4 -81.6 70.8 -77.6 70.8 -77.6C88.201 -78.6 98.801 -67.8 98.801 -67.8C109.601 -51.2 109.801 -59.4 109.801 -59.4C112.601 -68.8 100.801 -90 100.801 -90C101.201 -92 109.401 -85.4 109.401 -85.4C110.801 -87.4 111.601 -81.6 111.601 -81.6C111.801 -79.2 115.601 -71.2 115.601 -71.2C118.401 -58.2 122.001 -65.6 122.001 -65.6L126.601 -56.2C128.001 -53.6 122.001 -46 122.001 -46C121.801 -43.2 122.601 -43.4 117.001 -35.8C111.401 -28.2 114.801 -23.8 114.801 -23.8C113.401 -17.2 122.201 -17.6 122.201 -17.6C124.801 -15.4 128.201 -15.4 128.201 -15.4C130.001 -13.4 132.401 -14 132.401 -14C134.001 -17.8 140.201 -15.8 140.201 -15.8C141.601 -18.2 149.801 -18.6 149.801 -18.6C150.801 -21.2 151.201 -22.8 154.601 -23.4C158.001 -24 133.401 -67 133.401 -67C139.801 -67.8 131.601 -80.2 131.601 -80.2C129.401 -86.8 140.801 -72.2 143.001 -70.8C145.201 -69.4 146.201 -67.2 144.601 -67.4C143.001 -67.6 141.201 -65.4 142.601 -65.2C144.001 -65 157.001 -50 160.401 -39.8C163.801 -29.6 169.801 -25.6 176.001 -19.6C182.201 -13.6 181.401 10.6 181.401 10.6C181.001 19.4 187.001 30 187.001 30C189.001 33.8 184.801 52 184.801 52C182.801 54.2 184.201 55 184.201 55C185.201 56.2 192.001 69.4 192.001 69.4C190.201 69.2 193.801 72.8 193.801 72.8C199.001 78.8 192.601 75.8 192.601 75.8C186.601 74.2 193.601 84 193.601 84C194.801 85.8 185.801 81.2 185.801 81.2C176.601 80.6 188.201 87.8 188.201 87.8C196.801 95 185.401 90.6 185.401 90.6C180.801 88.8 184.001 95.6 184.001 95.6C187.201 97.2 204.401 104.2 204.401 104.2C204.801 108.001 201.801 113.001 201.801 113.001C202.201 117.001 200.001 120.401 200.001 120.401C198.801 128.601 198.201 129.401 198.201 129.401C194.001 129.601 186.601 143.401 186.601 143.401C184.801 146.001 174.601 158.001 174.601 158.001C172.601 165.001 154.601 157.801 154.601 157.801C148.001 161.201 150.001 157.801 150.001 157.801C149.601 155.601 154.401 149.601 154.401 149.601C161.401 147.001 158.801 136.201 158.801 136.201C162.801 134.801 151.601 132.001 151.801 130.801C152.001 129.601 157.801 128.201 157.801 128.201C165.801 126.201 161.401 123.801 161.401 123.801C160.801 119.801 163.801 114.201 163.801 114.201C175.401 113.401 163.801 97.2 163.801 97.2C153.001 89.6 152.001 83.8 152.001 83.8C164.601 75.6 156.401 63.2 156.601 59.6C156.801 56 158.001 34.4 158.001 34.4C156.001 28.2 153.001 14.6 153.001 14.6C155.201 9.4 162.601 -3.2 162.601 -3.2C165.401 -7.4 174.201 -12.2 172.001 -15.2C169.801 -18.2 162.001 -16.4 162.001 -16.4C154.201 -17.8 154.801 -12.6 154.801 -12.6C153.201 -11.6 152.401 -6.6 152.401 -6.6C151.68 1.333 142.801 7.6 142.801 7.6C131.601 13.8 140.801 17.8 140.801 17.8C146.801 24.4 137.001 24.6 137.001 24.6C126.001 22.8 134.201 33 134.201 33C145.001 45.8 142.001 48.6 142.001 48.6C131.801 49.6 144.401 58.8 144.401 58.8C144.401 58.8 143.601 56.8 143.801 58.6C144.001 60.4 147.001 64.6 147.801 66.6C148.601 68.6 144.601 68.8 144.601 68.8C145.201 78.4 129.801 74.2 129.801 74.2C129.801 74.2 129.801 74.2 128.201 74.4C126.601 74.6 115.401 73.8 109.601 71.6C103.801 69.4 97.001 69.4 97.001 69.4C97.001 69.4 93.001 71.2 85.4 71C77.8 70.8 69.8 73.6 69.8 73.6C65.4 73.2 74 68.8 74.2 69C74.4 69.2 80 63.6 72 64.2C50.203 65.835 39.4 55.6 39.4 55.6C37.4 54.2 34.8 51.4 34.8 51.4C24.8 49.4 36.2 63.8 36.2 63.8C37.4 65.2 36 66.2 36 66.2C35.2 64.6 27.4 59.2 27.4 59.2C24.589 58.227 23.226 56.893 20.895 54.407z"/>
 </g>
</svg>