<svg width="48" height="30" xmlns="http://www.w3.org/2000/svg">
 <g>
  <title>Layer 1</title>
  <rect transform="matrix(0.356598, 0, 0, 0.320251, 16.1228, -2.67034)" id="svg_7" fill="#C0FFC0" stroke="#008000" height="30" width="40" y="21.57473" x="-1.36413"/>
  <g id="svg_1" stroke-linejoin="round" stroke-linecap="round" stroke="#000" fill="none" transform="matrix(-0.00730254, -1.12086, 1.24088, -0.00659624, -13.8007, 24.8557)">
   <path id="svg_2" d="m4.61304,11.94067l-8.29883,0l0,3.20292l4.9793,0l0,3.20292l-4.9793,0"/>
   <path id="svg_3" d="m6.27281,11.94067l2.48965,6.40584l2.48965,-6.40584"/>
   <path id="svg_4" d="m21.21071,11.94067l-6.63907,0l0,6.40584l6.63907,0l0,-3.20292l-3.31953,0"/>
  </g>
  <circle transform="matrix(0.312357, 0, 0, 0.301086, 15.1442, -4.11075)" id="svg_8" stroke="#FF0000" fill="none" r="14" cy="37.87101" cx="81.99413"/>
  <rect id="svg_13" transform="matrix(0.724915, 0, 0, 0.654802, 20.4717, 2.87726)" fill="#000000" height="10" width="10" y="-0.12375" x="0.60068"/>
  <line id="svg_6" stroke="#0000FF" y2="1.01323" x2="47.05665" y1="1.01323" x1="15.10354"/>
  <ellipse transform="matrix(0.324616, 0, 0, 0.28022, 15.4648, -2.03984)" id="svg_9" stroke="#000000" fill="#FFFF00" ry="10" rx="20" cy="68.41493" cx="78.34072"/>
  <polyline id="svg_10" fill="none" stroke="#800080" points="15.638071040935756,17.829849243164062 21.842558979435125,23.434240341186523 28.047046917934495,17.829849243164062 34.251534856433864,23.434240341186523 "/>
  <polygon id="svg_11" fill="#FFA500" stroke="#000000" points="21.404585341727397,28.825037002563477 27.6090712955629,23.22064208984375 33.813563203390004,28.825037002563477 "/>
  <path id="svg_12" stroke="#000000" fill="#ADD8E6" d="m36.43145,17.6863l9.30673,0l0,11.20879l-9.30673,0l0,-11.20879z"/>
 </g>

</svg>