<!-- save as svg_demo.svg -->
<svg xmlns="http://www.w3.org/2000/svg" width="48" height="30" viewBox="0 0 48 30">
  <!-- "SVG" letters (paths) in the upper-left -->
  <g fill="none" stroke="#000" stroke-width="1" stroke-linecap="round" stroke-linejoin="round">
    <!-- S (fixed orientation) -->
    <path d="M6 6 H1 V8 H4 V10 H1" />
    <!-- V -->
    <path d="M7 6 L8.5 10 L10 6" />
    <!-- G -->
    <path d="M16 6 H12 V10 H16 V8 H14" />
  </g>

  <!-- Original demo shapes, uniformly scaled and shifted right so they don't overlap the letters -->
  <g transform="translate(18,0) scale(0.25)">
    <!-- line -->
    <line x1="10" y1="10" x2="110" y2="10" stroke="#0000FF" stroke-width="2"/>

    <!-- rectangle (stroke + fill) -->
    <rect x="10" y="20" width="40" height="30" stroke="#008000" fill="#C0FFC0" stroke-width="2"/>

    <!-- circle (stroke only) -->
    <circle cx="85" cy="35" r="14" fill="none" stroke="#FF0000" stroke-width="2"/>

    <!-- ellipse (stroke + fill) -->
    <ellipse cx="85" cy="80" rx="20" ry="10" fill="#FFFF00" stroke="#000000" stroke-width="1"/>

    <!-- polyline (no fill) -->
    <polyline points="10,70 30,90 50,70 70,90" stroke="#800080" fill="none" stroke-width="2"/>

    <!-- polygon (closed + filled) -->
    <polygon points="15,105 35,85 55,105" stroke="#000000" fill="#FFA500" stroke-width="1"/>

    <!-- path using only M/L/Z -->
    <path d="M70 60 L100 60 L100 100 L70 100 Z" fill="#ADD8E6" stroke="#000000" stroke-width="1"/>

    <!-- transformed rectangle (tests transform=scale) -->
    <rect x="5" y="5" width="10" height="10" fill="#000000" transform="scale(3,3)"/>
  </g>
</svg>
